{
    "asset": {
        "version": "2.0",
        "generator": "Open Asset Import Library (assimp v5.0.639693989)"
    },
    "accessors": [
        {
            "bufferView": 0,
            "byteOffset": 0,
            "componentType": 5126,
            "count": 75282,
            "type": "VEC3",
            "max": [
                5.413036346435547,
                5.400134086608887,
                -1.5352563858032227
            ],
            "min": [
                -11.205615997314454,
                -6.364541053771973,
                -6.0554351806640629
            ]
        },
        {
            "bufferView": 1,
            "byteOffset": 0,
            "componentType": 5126,
            "count": 75282,
            "type": "VEC3",
            "max": [
                0.9999465942382813,
                0.9999333024024963,
                0.99994957447052
            ],
            "min": [
                -0.999946653842926,
                -0.9999333024024963,
                -0.9999969601631165
            ]
        },
        {
            "bufferView": 2,
            "byteOffset": 0,
            "componentType": 5126,
            "count": 75282,
            "type": "VEC4",
            "max": [
                1.0,
                1.0,
                1.0,
                1.0
            ],
            "min": [
                0.0,
                0.0,
                0.0,
                1.0
            ]
        }
    ],
    "buffers": [
        {
            "byteLength": 3011280,
            "uri": "d8sexsjllt76.bin"
        }
    ],
    "bufferViews": [
        {
            "buffer": 0,
            "byteOffset": 0,
            "byteLength": 903384,
            "target": 34962
        },
        {
            "buffer": 0,
            "byteOffset": 903384,
            "byteLength": 903384,
            "target": 34962
        },
        {
            "buffer": 0,
            "byteOffset": 1806768,
            "byteLength": 1204512,
            "target": 34962
        }
    ],
    "materials": [
        {
            "name": "material",
            "pbrMetallicRoughness": {
                "metallicFactor": 0.0
            }
        }
    ],
    "meshes": [
        {
            "primitives": [
                {
                    "mode": 0,
                    "material": 0,
                    "attributes": {
                        "POSITION": 0,
                        "NORMAL": 1,
                        "COLOR_0": 2
                    }
                }
            ]
        }
    ],
    "nodes": [
        {
            "mesh": 0
        }
    ],
    "scenes": [
        {
            "nodes": [
                0
            ]
        }
    ],
    "scene": 0
}