{
    "asset": {
        "version": "2.0",
        "generator": "Open Asset Import Library (assimp v5.0.639693989)"
    },
    "accessors": [
        {
            "bufferView": 0,
            "byteOffset": 0,
            "componentType": 5126,
            "count": 164673,
            "type": "VEC3",
            "max": [
                12.828435897827149,
                5.142876625061035,
                -5.53950309753418
            ],
            "min": [
                -18.73278045654297,
                -22.292774200439454,
                -21.80470085144043
            ]
        },
        {
            "bufferView": 1,
            "byteOffset": 0,
            "componentType": 5126,
            "count": 164673,
            "type": "VEC3",
            "max": [
                0.9999709129333496,
                0.999929666519165,
                0.9999212026596069
            ],
            "min": [
                -0.9999079704284668,
                -0.9995266795158386,
                -0.9998995661735535
            ]
        },
        {
            "bufferView": 2,
            "byteOffset": 0,
            "componentType": 5126,
            "count": 164673,
            "type": "VEC4",
            "max": [
                1.0,
                1.0,
                1.0,
                1.0
            ],
            "min": [
                0.0,
                0.0,
                0.0,
                1.0
            ]
        }
    ],
    "buffers": [
        {
            "byteLength": 6586920,
            "uri": "vbwooxc4qnn0.bin"
        }
    ],
    "bufferViews": [
        {
            "buffer": 0,
            "byteOffset": 0,
            "byteLength": 1976076,
            "target": 34962
        },
        {
            "buffer": 0,
            "byteOffset": 1976076,
            "byteLength": 1976076,
            "target": 34962
        },
        {
            "buffer": 0,
            "byteOffset": 3952152,
            "byteLength": 2634768,
            "target": 34962
        }
    ],
    "materials": [
        {
            "name": "material",
            "pbrMetallicRoughness": {
                "metallicFactor": 0.0
            }
        }
    ],
    "meshes": [
        {
            "primitives": [
                {
                    "mode": 0,
                    "material": 0,
                    "attributes": {
                        "POSITION": 0,
                        "NORMAL": 1,
                        "COLOR_0": 2
                    }
                }
            ]
        }
    ],
    "nodes": [
        {
            "mesh": 0
        }
    ],
    "scenes": [
        {
            "nodes": [
                0
            ]
        }
    ],
    "scene": 0
}