{
    "asset": {
        "version": "2.0",
        "generator": "Open Asset Import Library (assimp v5.0.639693989)"
    },
    "accessors": [
        {
            "bufferView": 0,
            "byteOffset": 0,
            "componentType": 5126,
            "count": 34503,
            "type": "VEC3",
            "max": [
                15.348830223083496,
                0.34276247024536135,
                -18.926223754882814
            ],
            "min": [
                -23.319183349609376,
                -35.6053466796875,
                -38.49583053588867
            ]
        },
        {
            "bufferView": 1,
            "byteOffset": 0,
            "componentType": 5126,
            "count": 34503,
            "type": "VEC3",
            "max": [
                0.9998511672019959,
                0.9998655915260315,
                0.9998693466186523
            ],
            "min": [
                -0.9999696016311646,
                -0.9998493194580078,
                -0.9998693466186523
            ]
        },
        {
            "bufferView": 2,
            "byteOffset": 0,
            "componentType": 5126,
            "count": 34503,
            "type": "VEC4",
            "max": [
                1.0,
                1.0,
                1.0,
                1.0
            ],
            "min": [
                0.0,
                0.0,
                0.0,
                1.0
            ]
        }
    ],
    "buffers": [
        {
            "byteLength": 1380120,
            "uri": "m5ynlx4c8kep.bin"
        }
    ],
    "bufferViews": [
        {
            "buffer": 0,
            "byteOffset": 0,
            "byteLength": 414036,
            "target": 34962
        },
        {
            "buffer": 0,
            "byteOffset": 414036,
            "byteLength": 414036,
            "target": 34962
        },
        {
            "buffer": 0,
            "byteOffset": 828072,
            "byteLength": 552048,
            "target": 34962
        }
    ],
    "materials": [
        {
            "name": "material",
            "pbrMetallicRoughness": {
                "metallicFactor": 0.0
            }
        }
    ],
    "meshes": [
        {
            "primitives": [
                {
                    "mode": 0,
                    "material": 0,
                    "attributes": {
                        "POSITION": 0,
                        "NORMAL": 1,
                        "COLOR_0": 2
                    }
                }
            ]
        }
    ],
    "nodes": [
        {
            "mesh": 0
        }
    ],
    "scenes": [
        {
            "nodes": [
                0
            ]
        }
    ],
    "scene": 0
}