{
    "asset": {
        "version": "2.0",
        "generator": "Open Asset Import Library (assimp v5.0.639693989)"
    },
    "accessors": [
        {
            "bufferView": 0,
            "byteOffset": 0,
            "componentType": 5126,
            "count": 71003,
            "type": "VEC3",
            "max": [
                77.14667510986328,
                -22.105850219726564,
                -59.144309997558597
            ],
            "min": [
                -122.40762329101563,
                -147.772216796875,
                -274.1969909667969
            ]
        },
        {
            "bufferView": 1,
            "byteOffset": 0,
            "componentType": 5126,
            "count": 71003,
            "type": "VEC3",
            "max": [
                0.9999876022338867,
                0.9999333024024963,
                0.9998993873596191
            ],
            "min": [
                -0.9999479651451111,
                -0.9999333620071411,
                -0.9999876022338867
            ]
        },
        {
            "bufferView": 2,
            "byteOffset": 0,
            "componentType": 5126,
            "count": 71003,
            "type": "VEC4",
            "max": [
                1.0,
                1.0,
                1.0,
                1.0
            ],
            "min": [
                0.0,
                0.0,
                0.0,
                1.0
            ]
        }
    ],
    "buffers": [
        {
            "byteLength": 2840120,
            "uri": "vxmpr2pt3oyn.bin"
        }
    ],
    "bufferViews": [
        {
            "buffer": 0,
            "byteOffset": 0,
            "byteLength": 852036,
            "target": 34962
        },
        {
            "buffer": 0,
            "byteOffset": 852036,
            "byteLength": 852036,
            "target": 34962
        },
        {
            "buffer": 0,
            "byteOffset": 1704072,
            "byteLength": 1136048,
            "target": 34962
        }
    ],
    "materials": [
        {
            "name": "material",
            "pbrMetallicRoughness": {
                "metallicFactor": 0.0
            }
        }
    ],
    "meshes": [
        {
            "primitives": [
                {
                    "mode": 0,
                    "material": 0,
                    "attributes": {
                        "POSITION": 0,
                        "NORMAL": 1,
                        "COLOR_0": 2
                    }
                }
            ]
        }
    ],
    "nodes": [
        {
            "mesh": 0
        }
    ],
    "scenes": [
        {
            "nodes": [
                0
            ]
        }
    ],
    "scene": 0
}