{
    "asset": {
        "version": "2.0",
        "generator": "Open Asset Import Library (assimp v5.0.639693989)"
    },
    "accessors": [
        {
            "bufferView": 0,
            "byteOffset": 0,
            "componentType": 5126,
            "count": 246801,
            "type": "VEC3",
            "max": [
                3.149263381958008,
                7.709064483642578,
                5.577773094177246
            ],
            "min": [
                -6.877808570861816,
                -4.386665344238281,
                -6.356451034545898
            ]
        },
        {
            "bufferView": 1,
            "byteOffset": 0,
            "componentType": 5126,
            "count": 246801,
            "type": "VEC3",
            "max": [
                0.9999643564224243,
                0.9999291896820068,
                0.9999959468841553
            ],
            "min": [
                -0.9999853372573853,
                -0.9990761876106262,
                -0.9999959468841553
            ]
        },
        {
            "bufferView": 2,
            "byteOffset": 0,
            "componentType": 5126,
            "count": 246801,
            "type": "VEC4",
            "max": [
                1.0,
                1.0,
                1.0,
                1.0
            ],
            "min": [
                0.0,
                0.0,
                0.0,
                1.0
            ]
        }
    ],
    "buffers": [
        {
            "byteLength": 9872040,
            "uri": "cyw5duuchdxr.bin"
        }
    ],
    "bufferViews": [
        {
            "buffer": 0,
            "byteOffset": 0,
            "byteLength": 2961612,
            "target": 34962
        },
        {
            "buffer": 0,
            "byteOffset": 2961612,
            "byteLength": 2961612,
            "target": 34962
        },
        {
            "buffer": 0,
            "byteOffset": 5923224,
            "byteLength": 3948816,
            "target": 34962
        }
    ],
    "materials": [
        {
            "name": "material",
            "pbrMetallicRoughness": {
                "metallicFactor": 0.0
            }
        }
    ],
    "meshes": [
        {
            "primitives": [
                {
                    "mode": 0,
                    "material": 0,
                    "attributes": {
                        "POSITION": 0,
                        "NORMAL": 1,
                        "COLOR_0": 2
                    }
                }
            ]
        }
    ],
    "nodes": [
        {
            "mesh": 0
        }
    ],
    "scenes": [
        {
            "nodes": [
                0
            ]
        }
    ],
    "scene": 0
}