{
    "asset": {
        "version": "2.0",
        "generator": "Open Asset Import Library (assimp v5.0.639693989)"
    },
    "accessors": [
        {
            "bufferView": 0,
            "byteOffset": 0,
            "componentType": 5126,
            "count": 128263,
            "type": "VEC3",
            "max": [
                7.145313262939453,
                0.5963459014892578,
                6.009659767150879
            ],
            "min": [
                -8.013961791992188,
                -0.019019603729248048,
                -5.963683128356934
            ]
        },
        {
            "bufferView": 1,
            "byteOffset": 0,
            "componentType": 5126,
            "count": 128263,
            "type": "VEC3",
            "max": [
                0.9999382495880127,
                0.9999333024024963,
                0.9999382495880127
            ],
            "min": [
                -0.9999382495880127,
                -0.9999333024024963,
                -0.9996328949928284
            ]
        },
        {
            "bufferView": 2,
            "byteOffset": 0,
            "componentType": 5126,
            "count": 128263,
            "type": "VEC4",
            "max": [
                1.0,
                1.0,
                1.0,
                1.0
            ],
            "min": [
                0.0,
                0.0,
                0.0,
                1.0
            ]
        }
    ],
    "buffers": [
        {
            "byteLength": 5130520,
            "uri": "20rd2p2b3f3t.bin"
        }
    ],
    "bufferViews": [
        {
            "buffer": 0,
            "byteOffset": 0,
            "byteLength": 1539156,
            "target": 34962
        },
        {
            "buffer": 0,
            "byteOffset": 1539156,
            "byteLength": 1539156,
            "target": 34962
        },
        {
            "buffer": 0,
            "byteOffset": 3078312,
            "byteLength": 2052208,
            "target": 34962
        }
    ],
    "materials": [
        {
            "name": "material",
            "pbrMetallicRoughness": {
                "metallicFactor": 0.0
            }
        }
    ],
    "meshes": [
        {
            "primitives": [
                {
                    "mode": 0,
                    "material": 0,
                    "attributes": {
                        "POSITION": 0,
                        "NORMAL": 1,
                        "COLOR_0": 2
                    }
                }
            ]
        }
    ],
    "nodes": [
        {
            "mesh": 0
        }
    ],
    "scenes": [
        {
            "nodes": [
                0
            ]
        }
    ],
    "scene": 0
}