{
    "asset": {
        "version": "2.0",
        "generator": "Open Asset Import Library (assimp v5.0.639693989)"
    },
    "accessors": [
        {
            "bufferView": 0,
            "byteOffset": 0,
            "componentType": 5126,
            "count": 66958,
            "type": "VEC3",
            "max": [
                3.791558027267456,
                4.770610809326172,
                3.0482544898986818
            ],
            "min": [
                -8.343966484069825,
                -4.503302097320557,
                -3.0555343627929689
            ]
        },
        {
            "bufferView": 1,
            "byteOffset": 0,
            "componentType": 5126,
            "count": 66958,
            "type": "VEC3",
            "max": [
                0.9999382495880127,
                0.9997131824493408,
                0.9999709129333496
            ],
            "min": [
                -0.9999382495880127,
                -0.9999333024024963,
                -0.9999382495880127
            ]
        },
        {
            "bufferView": 2,
            "byteOffset": 0,
            "componentType": 5126,
            "count": 66958,
            "type": "VEC4",
            "max": [
                1.0,
                1.0,
                1.0,
                1.0
            ],
            "min": [
                0.0,
                0.0,
                0.0,
                1.0
            ]
        }
    ],
    "buffers": [
        {
            "byteLength": 2678320,
            "uri": "i34kfxbxh7aj.bin"
        }
    ],
    "bufferViews": [
        {
            "buffer": 0,
            "byteOffset": 0,
            "byteLength": 803496,
            "target": 34962
        },
        {
            "buffer": 0,
            "byteOffset": 803496,
            "byteLength": 803496,
            "target": 34962
        },
        {
            "buffer": 0,
            "byteOffset": 1606992,
            "byteLength": 1071328,
            "target": 34962
        }
    ],
    "materials": [
        {
            "name": "material",
            "pbrMetallicRoughness": {
                "metallicFactor": 0.0
            }
        }
    ],
    "meshes": [
        {
            "primitives": [
                {
                    "mode": 0,
                    "material": 0,
                    "attributes": {
                        "POSITION": 0,
                        "NORMAL": 1,
                        "COLOR_0": 2
                    }
                }
            ]
        }
    ],
    "nodes": [
        {
            "mesh": 0
        }
    ],
    "scenes": [
        {
            "nodes": [
                0
            ]
        }
    ],
    "scene": 0
}