{
    "asset": {
        "version": "2.0",
        "generator": "Open Asset Import Library (assimp v5.0.639693989)"
    },
    "accessors": [
        {
            "bufferView": 0,
            "byteOffset": 0,
            "componentType": 5126,
            "count": 39045,
            "type": "VEC3",
            "max": [
                6.877496719360352,
                4.15567684173584,
                2.3292226791381838
            ],
            "min": [
                -7.077102184295654,
                -0.3133351802825928,
                -2.133427619934082
            ]
        },
        {
            "bufferView": 1,
            "byteOffset": 0,
            "componentType": 5126,
            "count": 39045,
            "type": "VEC3",
            "max": [
                0.998809278011322,
                0.9999397993087769,
                0.9999747276306152
            ],
            "min": [
                -0.9988092184066773,
                -0.9997222423553467,
                -0.9999676942825317
            ]
        },
        {
            "bufferView": 2,
            "byteOffset": 0,
            "componentType": 5126,
            "count": 39045,
            "type": "VEC4",
            "max": [
                1.0,
                1.0,
                1.0,
                1.0
            ],
            "min": [
                0.0,
                0.0,
                0.0,
                1.0
            ]
        }
    ],
    "buffers": [
        {
            "byteLength": 1561800,
            "uri": "ds1498k2tsup.bin"
        }
    ],
    "bufferViews": [
        {
            "buffer": 0,
            "byteOffset": 0,
            "byteLength": 468540,
            "target": 34962
        },
        {
            "buffer": 0,
            "byteOffset": 468540,
            "byteLength": 468540,
            "target": 34962
        },
        {
            "buffer": 0,
            "byteOffset": 937080,
            "byteLength": 624720,
            "target": 34962
        }
    ],
    "materials": [
        {
            "name": "material",
            "pbrMetallicRoughness": {
                "metallicFactor": 0.0
            }
        }
    ],
    "meshes": [
        {
            "primitives": [
                {
                    "mode": 0,
                    "material": 0,
                    "attributes": {
                        "POSITION": 0,
                        "NORMAL": 1,
                        "COLOR_0": 2
                    }
                }
            ]
        }
    ],
    "nodes": [
        {
            "mesh": 0
        }
    ],
    "scenes": [
        {
            "nodes": [
                0
            ]
        }
    ],
    "scene": 0
}