{
    "asset": {
        "version": "2.0",
        "generator": "Open Asset Import Library (assimp v5.0.639693989)"
    },
    "accessors": [
        {
            "bufferView": 0,
            "byteOffset": 0,
            "componentType": 5126,
            "count": 15313,
            "type": "VEC3",
            "max": [
                6.492343902587891,
                5.506337642669678,
                0.7530136108398438
            ],
            "min": [
                -11.978028297424317,
                -1.6857423782348633,
                -2.2617850303649904
            ]
        },
        {
            "bufferView": 1,
            "byteOffset": 0,
            "componentType": 5126,
            "count": 15313,
            "type": "VEC3",
            "max": [
                0.8140221834182739,
                0.8874534964561462,
                0.9999757409095764
            ],
            "min": [
                -0.7780672311782837,
                -0.8843647241592407,
                -0.9999758005142212
            ]
        },
        {
            "bufferView": 2,
            "byteOffset": 0,
            "componentType": 5126,
            "count": 15313,
            "type": "VEC4",
            "max": [
                1.0,
                1.0,
                1.0,
                1.0
            ],
            "min": [
                0.0,
                0.0,
                0.0,
                1.0
            ]
        }
    ],
    "buffers": [
        {
            "byteLength": 612520,
            "uri": "11mz0pmeqm30.bin"
        }
    ],
    "bufferViews": [
        {
            "buffer": 0,
            "byteOffset": 0,
            "byteLength": 183756,
            "target": 34962
        },
        {
            "buffer": 0,
            "byteOffset": 183756,
            "byteLength": 183756,
            "target": 34962
        },
        {
            "buffer": 0,
            "byteOffset": 367512,
            "byteLength": 245008,
            "target": 34962
        }
    ],
    "materials": [
        {
            "name": "material",
            "pbrMetallicRoughness": {
                "metallicFactor": 0.0
            }
        }
    ],
    "meshes": [
        {
            "primitives": [
                {
                    "mode": 0,
                    "material": 0,
                    "attributes": {
                        "POSITION": 0,
                        "NORMAL": 1,
                        "COLOR_0": 2
                    }
                }
            ]
        }
    ],
    "nodes": [
        {
            "mesh": 0
        }
    ],
    "scenes": [
        {
            "nodes": [
                0
            ]
        }
    ],
    "scene": 0
}