{
    "asset": {
        "version": "2.0",
        "generator": "Open Asset Import Library (assimp v5.0.639693989)"
    },
    "accessors": [
        {
            "bufferView": 0,
            "byteOffset": 0,
            "componentType": 5126,
            "count": 96261,
            "type": "VEC3",
            "max": [
                -0.3138158321380615,
                8.541482925415039,
                10.691356658935547
            ],
            "min": [
                -2.9068617820739748,
                7.35828971862793,
                8.876155853271485
            ]
        },
        {
            "bufferView": 1,
            "byteOffset": 0,
            "componentType": 5126,
            "count": 96261,
            "type": "VEC3",
            "max": [
                0.9999709129333496,
                0.9999207258224487,
                0.9999882578849793
            ],
            "min": [
                -0.9998914003372192,
                -0.9998528957366943,
                -0.9999619722366333
            ]
        },
        {
            "bufferView": 2,
            "byteOffset": 0,
            "componentType": 5126,
            "count": 96261,
            "type": "VEC4",
            "max": [
                1.0,
                1.0,
                1.0,
                1.0
            ],
            "min": [
                0.0,
                0.0,
                0.0,
                1.0
            ]
        }
    ],
    "buffers": [
        {
            "byteLength": 3850440,
            "uri": "s62nmj7nppgo.bin"
        }
    ],
    "bufferViews": [
        {
            "buffer": 0,
            "byteOffset": 0,
            "byteLength": 1155132,
            "target": 34962
        },
        {
            "buffer": 0,
            "byteOffset": 1155132,
            "byteLength": 1155132,
            "target": 34962
        },
        {
            "buffer": 0,
            "byteOffset": 2310264,
            "byteLength": 1540176,
            "target": 34962
        }
    ],
    "materials": [
        {
            "name": "material",
            "pbrMetallicRoughness": {
                "metallicFactor": 0.0
            }
        }
    ],
    "meshes": [
        {
            "primitives": [
                {
                    "mode": 0,
                    "material": 0,
                    "attributes": {
                        "POSITION": 0,
                        "NORMAL": 1,
                        "COLOR_0": 2
                    }
                }
            ]
        }
    ],
    "nodes": [
        {
            "mesh": 0
        }
    ],
    "scenes": [
        {
            "nodes": [
                0
            ]
        }
    ],
    "scene": 0
}